<?xml version="1.0" encoding="UTF-8" standalone="no"?>
<svg
   width="14.2222in"
   height="14.2222in"
   viewBox="0 0 1024 1024"
   version="1.1"
   id="svg1"
   sodipodi:docname="helmet.svg"
   inkscape:version="1.3.2 (091e20e, 2023-11-25, custom)"
   xmlns:inkscape="http://www.inkscape.org/namespaces/inkscape"
   xmlns:sodipodi="http://sodipodi.sourceforge.net/DTD/sodipodi-0.dtd"
   xmlns="http://www.w3.org/2000/svg"
   xmlns:svg="http://www.w3.org/2000/svg">
  <defs
     id="defs1" />
  <sodipodi:namedview
     id="namedview1"
     pagecolor="#ffffff"
     bordercolor="#999999"
     borderopacity="1"
     inkscape:showpageshadow="2"
     inkscape:pageopacity="0"
     inkscape:pagecheckerboard="0"
     inkscape:deskcolor="#d1d1d1"
     inkscape:document-units="in"
     inkscape:zoom="1.4142136"
     inkscape:cx="702.86414"
     inkscape:cy="755.5436"
     inkscape:window-width="1920"
     inkscape:window-height="1051"
     inkscape:window-x="-9"
     inkscape:window-y="-9"
     inkscape:window-maximized="1"
     inkscape:current-layer="svg1" />
  <path
     d="M 0,1023.9999 V 0 h 1023.9999 v 1023.9999 z"
     id="path16"
     inkscape:label="Background"
     style="fill:#023140;fill-opacity:1;stroke-width:0;stroke-dasharray:none"
     sodipodi:nodetypes="ccccc" />
  <g
     id="g1"
     inkscape:label="helmet">
    <path
       id="path1"
       style="fill:#ffffff;fill-opacity:1"
       d="m 633.95,374.95 c 0,0 151.43,-66.95 151.43,-66.95 0,0 28.62,80 28.62,80 5.25,14.25 2.5,24.38 -11.27,29.27 0,0 -69.46,30.37 -69.46,30.37 0,0 -140.18,180.36 -140.18,180.36 0,0 -297.21,141.88 -297.21,141.88 C 266,783.33 240.75,696 227.94,665.06 268.36,646.73 549.41,551.82 551.64,527.82 638.5,556.5 714.5,450 633.95,374.95 Z M 766.06,293 c 0,0 -155.61,68.01 -155.61,68.01 -42.12,-17.68 -93.12,6.99 -108.42,39.01 0,0 -293.03,20.99 -293.03,20.99 C 231,246 523.5,22.5 766.06,293 Z M 203.33,444.67 c 0,0 123.67,-10 123.67,-10 -39.33,40.66 -84.67,110.66 -68.67,194 0,0 -40.66,13.66 -40.66,13.66 C 187.33,585.33 188,498 203.33,444.67 Z"
       inkscape:label="white" />
    <path
       id="path17"
       style="fill:#4b9097;fill-opacity:1"
       inkscape:label="blue"
       d="M 259.33356,440.13604 327,434.67 c -39.33,40.66 -84.67,110.66 -68.67,194 l -22.62307,7.59455 C 217.57049,554.40547 246.71546,479.90654 259.33356,440.13604 Z M 315.64,576.91 C 305,592.25 286,583.75 296.91,566.82 c 0,0 63.09,-86.82 63.09,-86.82 12.54,-11.27 26,3.75 15,14.25 z M 568.7216,389.2084 c 47.1,-5.82 80.61,46.37 54.14,85.57 -4.06,6.02 -9.55,11.36 -15.64,15.3 -7.09,4.59 -14.68,7.08 -23,8.27 -6.27,0.91 -12.82,0.44 -19,-0.86 -45.54,-9.57 -58.02,-68.86 -22,-97.19 8.34,-6.56 15.19,-9.4 25.5,-11.09 z M 707.27,519.82 c 0,0 62.91,0.54 62.91,0.54 0,0 -16.54,32.91 -16.54,32.91 0,0 -121.64,58.91 -121.64,58.91 z M 790,467.5 c 0,0 -45.5,-0.5 -45.5,-0.5 0,0 8.5,-7 8.5,-7 0,0 38.38,-17 38.38,-17 z M 428.64,782.91 c 0,0 23.36,21.34 23.36,21.34 0,0 20.22,57.79 20.22,57.79 0,0 273.96,-150.22 273.96,-150.22 0,0 -57.63,-52.18 -57.63,-52.18 0,0 -24.73,0 -24.73,0 z M 317.91,785 329.62595,797.12996 435.09,743.82 425.45,731.09 Z" />
    <path
       d="m 317.91,785 11.71595,12.12996 32.73147,-16.82353 -9.64,-12.73 z"
       id="path18"
       style="fill:#ffffff;fill-opacity:1"
       sodipodi:nodetypes="ccccc"
       inkscape:label="white1" />
    <path
       id="path19"
       style="fill:#ed472a;fill-opacity:1"
       d="M 631.325,375.325 785.38,308 814,388 c 5.25,14.25 2.5,24.38 -11.27,29.27 L 733.27,447.64 593.09,628 357.84885,740.30183 c -29.88,13.45 35.71388,-101.86442 22.90388,-132.80442 C 421.34932,590.99507 529.223,542.85963 551.64,527.82 643.15534,523.51099 683.96505,462.16639 631.325,375.325 Z M 456.02,256.65 c 14.76,-2.7 16.72,15.37 5.96,18.7 -11.37,3.51 -19.08,-12.92 -5.96,-18.7 z m -42.77,36.1 c 9.25,-9.63 22.37,1.5 13,11.87 L 400.5,337.38 C 390.12,348 376.12,336.88 386.12,324.62 Z M 716.5,504.5 734,482.5 h 72 c 21.40639,-0.13682 20.7652,22.01571 1,21.5 z m 76.25,13.5 -10,21.25 68.5,-0.25 c 18.61586,0.33096 18.22008,-21.39216 1.25,-20.75 z m -83.3,106.55 c -4.28125,1.78846 -1.95378,9.84147 3.1,7.36 l 59.80377,-27.14123 53.09623,0.0321 c 10.08575,-0.28017 10.45988,-14.06044 -0.18,-14.2509 l -44.91,0.54 z m -45.7,-10.8 c -10.31159,5.13876 -4.37994,17.2679 6.13,12 l 107.26583,-49.74914 h 86.85546 c 9.85341,0.0891 10.28804,-16.58582 0,-16.56003 l -86.18129,0.009 z M 571.201,413.848 c 2.62,-0.15 4.32,-0.32 7,0 33.72,1.15 41.13,46.96 11,59.28 -4.47,1.82 -9.18,2.63 -14,2.43 -34.39607,-1.38762 -43.71122,-51.84094 -4,-61.71 z"
       inkscape:label="orange"
       sodipodi:nodetypes="ccccccccccccccccccccccccccccccccccccccccccccccc" />
  </g>
</svg>
